<svg width="82" height="86" viewBox="0 0 82 86" fill="none" xmlns="http://www.w3.org/2000/svg">
<path d="M13.5 22.6009L1.00003 5.10091C0.300033 4.20091 0.500033 3.00092 1.40003 2.40091L3.70003 0.800915C4.60003 0.200915 5.80003 0.400915 6.50003 1.30091L19 18.7009L13.5 22.6009ZM81.1 42.9009L80.8 53.7009C80.3 70.1009 67.6 83.7009 51.4 85.3009H51.1C50.1 85.4009 49 85.5009 48 85.6009C47.1 85.7009 46.3 85.7009 45.4 85.7009C30.4 85.7009 16.9 75.1009 13.5 60.2009L11.1 49.7009C10.6 48.6009 10.3 47.6009 10.2 46.4009C9.70003 41.7009 12.7 37.2009 18 33.5009C17.7 30.7009 17.5 28.3009 17.5 26.7009C16.8 26.7009 16.2 26.5009 15.8 25.9009L14.1 23.6009L19.6 19.7009L21.3 22.0009C21.7 22.6009 21.8 23.3009 21.5 23.9009C23.5 24.7009 26.8 26.0009 30.2 27.8009C34.4 26.5009 39.1 25.5009 44.1 25.0009C47.6 24.7009 51 24.6009 54.2 24.7009C57.6 23.0009 60.7 22.1009 61 22.0009C61.3 21.9009 61.6 22.0009 61.8 22.1009C62 22.2009 62.2 22.5009 62.3 22.8009C62.5 23.7009 62.7 24.7009 63.1 25.8009C73.6 27.9009 80.9 33.0009 81.5 39.6009C81.5 40.6009 81.4 41.7009 81.1 42.9009ZM63.8 27.9009C64.5 29.4009 65.4 30.6009 66.4 30.9009C69.2 31.8009 70 33.6009 70.1 34.9009C74.5 35.6009 77.3 40.0009 78.8 43.5009C78.9 43.2009 79 42.8009 79.1 42.5009C79.4 41.5009 79.5 40.5009 79.4 39.5009C79.4 39.4009 79.4 39.2009 79.3 39.1009C78.6 34.0009 72.5 29.9009 63.8 27.9009ZM23.4 32.5009C24.5 34.8009 25.8 37.3009 27.2 39.7009C27.5 39.5009 27.8 39.3009 28.2 39.1009L23.4 32.5009ZM29.9 38.1009C30.3 37.9009 30.6 37.8009 31 37.6009C29.2 35.5009 27.2 33.4009 25.3 31.6009C25.3 31.6009 25.2 31.6009 25.2 31.7009L29.9 38.1009ZM33 36.8009C33.5 36.7009 33.9 36.5009 34.4 36.4009C32.3 34.3009 29.8 32.3009 27.5 30.6009C27.5 30.6009 27.4 30.6009 27.4 30.7009C29.2 32.6009 31.2 34.7009 33 36.8009ZM21.8 33.7009C22.6 36.3009 23.5 39.1009 24.7 41.7009C25 41.4009 25.3 41.1009 25.6 40.9009C24.2 38.5009 22.9 36.0009 21.8 33.7009ZM38.5 35.8009C36.1 33.5009 33 31.4009 30 29.8009C29.9 29.8009 29.9 29.8009 29.8 29.9009C32.2 31.7009 34.7 33.8009 36.8 36.1009C37.3 35.9009 37.9 35.9009 38.5 35.8009ZM20.3 35.5009C20.8 38.5009 21.5 41.7009 22.6 44.5009C22.8 44.1009 23.1 43.7009 23.4 43.3009C22.1 40.8009 21.1 38.1009 20.3 35.5009ZM23.4 56.5009C30 58.9009 38.5 59.7009 47.4 58.9009C61.5 57.5009 73.2 52.2009 77.6 45.8009C76.5 42.6009 73.8 37.4009 69.5 36.9009C65.4 39.7009 61.2 40.4009 58.2 40.4009C55.8 40.4009 54.2 40.0009 54 39.9009C53.5 39.8009 53.2 39.2009 53.3 38.7009C53.4 38.2009 54 37.9009 54.5 38.0009C54.6 38.0009 61.5 39.8009 68.1 35.4009C68.2 34.5009 67.9 33.5009 65.8 32.8009C63.7 32.1009 62.4 29.7009 61.5 27.4009C61.2 26.6009 61 25.9009 60.8 25.3009C60.7 24.9009 60.6 24.5009 60.5 24.2009C60 24.4009 59.2 24.7009 58.4 25.0009C57.3 25.4009 56 26.0009 54.6 26.7009C51.2 28.4009 47.8 30.8009 46.9 33.7009C46.5 35.1009 46.4 36.2009 46.6 37.1009C46.7 37.4009 46.6 37.8009 46.3 38.0009C46.1 38.2009 45.7 38.3009 45.4 38.3009C44.5 38.1009 43.6 38.0009 42.6 37.9009C41.9 37.8009 41.2 37.8009 40.4 37.8009C40.3 37.8009 40.2 37.8009 40.1 37.8009C39.5 37.8009 38.8 37.8009 38.2 37.9009C37.4 38.0009 36.6 38.1009 35.9 38.2009C35.4 38.3009 34.8 38.4009 34.3 38.6009C33.6 38.8009 32.9 39.0009 32.3 39.2009C31.8 39.4009 31.4 39.6009 31 39.7009C30.4 40.0009 29.8 40.3009 29.2 40.6009C28.8 40.8009 28.4 41.1009 28.1 41.3009C27.5 41.7009 27 42.1009 26.6 42.6009C26.3 42.9009 25.9 43.3009 25.6 43.6009C25.1 44.2009 24.7 44.8009 24.3 45.4009C24 45.9009 23.8 46.5009 23.6 47.0009C23.3 48.0009 23.1 48.9009 23 50.0009V50.1009C23 51.7009 23.4 53.2009 24.3 54.7009C24.5 55.1009 24.4 55.7009 24.1 56.0009C23.8 56.1009 23.6 56.3009 23.4 56.5009ZM32.6 29.0009C35.8 30.9009 38.9 33.2009 41.2 35.8009C42.3 35.8009 43.5 35.9009 44.6 36.1009C44.6 35.2009 44.8 34.2009 45.1 33.1009C45.9 30.5009 48.2 28.3009 50.9 26.5009C48.8 26.5009 46.6 26.6009 44.4 26.8009C40.1 27.2009 36.2 28.0009 32.6 29.0009ZM12.1 45.7009C12.1 45.8009 12.1 46.0009 12.1 46.1009C12.2 47.1009 12.5 48.0009 12.9 48.9009C14.2 51.6009 17.1 53.9009 21.2 55.7009C21.5 55.4009 21.8 55.2009 22.1 54.9009C21.3 53.3009 21 51.7009 21 50.1009C21 49.1009 21.1 48.1009 21.4 47.2009C19.8 43.7009 18.8 39.5009 18.2 35.7009C14.3 38.6009 12 42.2009 12.1 45.7009ZM78.9 49.9009L79 47.2009C78.4 48.1009 77.6 48.9009 76.8 49.7009C71 55.3009 60.3 59.6009 47.6 60.8009C45.3 61.0009 43 61.1009 40.7 61.1009C33.8 61.1009 27.4 60.1009 22.2 58.1009C22.1 58.1009 22 58.0009 22 58.0009C21.7 57.9009 21.4 57.8009 21.1 57.6009C20.8 57.5009 20.5 57.3009 20.2 57.2009C17.8 56.1009 15.8 54.8009 14.2 53.3009L15.6 59.5009C19 74.3009 32.9 84.6009 48 83.4009C49 83.3009 50 83.2009 51 83.1009H51.3C66.4 81.8009 78.3 69.0009 78.8 53.6009L78.9 49.9009Z" fill="#6F5E6C"/>
</svg>
