<svg width="82" height="86" viewBox="0 0 82 86" fill="none" xmlns="http://www.w3.org/2000/svg">
<path d="M0.523788 5.89007C1.27161 5.42268 2.01945 5.51616 2.58031 5.60964C2.67379 5.60964 2.76727 5.70312 2.86074 5.70312C3.32813 5.89007 3.42162 5.89007 3.5151 5.79659C3.60857 5.70312 3.70205 5.60964 3.70205 5.14225C3.70205 5.04877 3.70205 4.95529 3.70205 4.86181C3.79552 4.30094 3.98248 3.55312 4.73031 3.08572C5.47813 2.61833 6.22597 2.71181 6.78683 2.80529C6.88031 2.80529 6.97379 2.89877 7.06727 2.89877C7.53466 3.08572 7.62814 3.08572 7.72162 2.99225C8.00205 2.80529 8.00205 2.80529 8.09554 2.24442C8.09554 2.15094 8.09554 2.05746 8.09554 1.96399C8.18901 1.40312 8.37597 0.65529 9.12379 0.187899C9.59119 -0.0925363 10.1521 0.000942033 10.4325 0.374855V0.468333C10.526 0.561812 10.6194 0.748768 10.6194 0.842246L13.1434 11.5922L17.8173 12.0596C20.8086 12.3401 23.1455 14.0227 24.0803 16.6401L29.5021 30.8488H29.5955C29.876 30.9422 30.0629 31.2227 30.1564 31.5031L32.1194 38.1401C35.8586 37.1118 40.1586 36.364 44.8325 35.9901C46.4216 33.7466 49.226 31.4096 49.8803 30.7553C50.2542 30.4749 50.7216 30.4749 51.0955 30.7553C51.8434 31.3162 54.5542 33.6531 56.1434 35.9901C59.789 36.2705 63.2477 36.7379 66.3325 37.4857C67.3608 36.5509 68.2021 35.8031 68.576 35.4292C68.9499 35.1488 69.4173 35.1488 69.7912 35.4292C70.4455 35.9901 72.876 38.0466 74.5586 40.1966C79.2325 42.3466 81.9434 45.2444 81.9434 48.3292C81.9434 48.6096 81.9434 48.8901 81.8499 49.1705V73.5683C81.7564 80.4857 68.0151 86.0009 50.4412 86.0009C32.8673 86.0009 19.126 80.4857 19.126 73.4749V49.1705C19.126 48.8901 19.0325 48.6096 19.0325 48.3292C19.0325 45.4314 21.3694 42.814 25.389 40.664L21.276 37.3922C21.089 37.2053 20.9021 36.9249 20.9021 36.6444V36.5509L9.87161 26.1749C7.90857 24.3053 7.25423 21.5009 8.09554 18.6031L9.4977 14.1162L0.523788 7.66616C0.430305 7.57268 0.336838 7.4792 0.243355 7.29225C0.243355 7.29225 0.149879 7.29225 0.149879 7.19877C-0.0370789 6.73138 0.149872 6.17051 0.523788 5.89007ZM32.2129 42.0662L30.2499 43.3749C29.9694 43.5618 29.7825 43.6553 29.5021 43.6553C29.2216 43.6553 28.8477 43.5618 28.6608 43.3749L28.5673 43.2814C27.539 44.0292 26.8847 44.6836 26.7912 45.0575C26.7912 45.8988 28.7542 47.0205 31.839 47.0205C34.9238 47.0205 36.8868 45.8053 36.8868 45.0575C36.7934 44.4966 34.9238 43.0009 32.6803 41.5988C32.5868 41.6922 32.3999 41.8792 32.2129 42.0662ZM55.1151 37.7662C54.9281 37.4857 54.7412 37.1118 54.4608 36.8314C54.1803 36.5509 53.9934 36.177 53.6194 35.8966C52.6847 34.8683 51.5629 33.7466 50.4412 32.8118C49.3194 33.8401 48.1977 34.8683 47.2629 35.8966C46.9825 36.2705 46.7021 36.5509 46.4216 36.8314C46.1412 37.2053 45.9542 37.4857 45.7673 37.7662C45.4868 38.2336 45.2999 38.6075 45.2999 38.8879C45.2999 40.7575 47.6368 42.2531 50.3477 42.2531C53.0586 42.2531 55.3955 40.664 55.3955 38.8879C55.5825 38.6075 55.3955 38.2336 55.1151 37.7662ZM73.2499 41.5988C72.876 41.1314 72.4086 40.5705 71.9412 40.0096C71.4738 39.5422 71.0064 38.9814 70.4455 38.514C69.9781 38.0466 69.5108 37.6727 69.1368 37.2988C68.9499 37.4857 68.6694 37.6727 68.4825 37.9531C68.2021 38.2336 67.9216 38.4205 67.6412 38.7009C67.3608 38.9814 67.1738 39.1683 66.8934 39.4488C65.3042 41.1314 64.089 42.7205 64.089 43.4683C64.089 45.3379 66.426 46.8335 69.1368 46.8335C71.8477 46.8335 74.1847 45.2444 74.1847 43.4683C74.1847 43.0944 73.8108 42.4401 73.2499 41.5988ZM20.9955 73.4749C20.9955 78.6162 32.8673 84.1314 50.4412 84.1314C68.1086 84.1314 79.8868 78.6162 79.8868 73.4749V52.7227C75.4934 57.4901 64.089 60.8553 50.4412 60.8553C36.7934 60.8553 25.389 57.4901 20.9955 52.7227V73.4749ZM20.9955 48.0488C20.9955 48.1423 21.089 48.2357 21.089 48.3292V48.9836C22.0238 53.9379 33.6151 58.9857 50.5347 58.9857C67.4542 58.9857 78.9521 53.9379 79.8868 48.9836V48.3292C79.8868 48.2357 79.8868 48.1423 79.9803 48.0488C79.8868 46.3662 78.4847 44.6836 76.0542 43.0944C76.0542 43.1879 76.0542 43.3749 76.0542 43.4683C76.0542 46.3662 72.9694 48.7031 69.1368 48.7031C65.3042 48.7031 62.2194 46.3662 62.2194 43.4683C62.2194 42.1596 63.4347 40.477 64.8368 38.9814C62.4999 38.514 59.976 38.1401 57.2651 37.8596C57.3586 38.2336 57.4521 38.514 57.4521 38.7944C57.4521 41.6922 54.3673 44.0292 50.5347 44.0292C46.7021 44.0292 43.6173 41.6922 43.6173 38.7944C43.6173 38.514 43.7108 38.1401 43.8042 37.8596C39.8781 38.2336 36.4194 38.7944 33.3347 39.6357C35.7651 41.0379 38.7564 43.1879 38.7564 44.8705C38.7564 47.114 35.7651 48.7031 31.839 48.7031C27.9129 48.7031 24.9216 47.0205 24.9216 44.8705C24.9216 43.9357 25.8564 42.9075 27.0716 41.8792C23.239 43.7488 21.089 45.8988 20.9955 48.0488ZM29.3151 41.4118L29.5021 41.5988L30.9042 40.664L30.8107 40.477V40.3836L28.7542 33.1857L28.4738 33.3727L23.7999 36.4575L23.5194 36.6444L29.3151 41.4118ZM11.2738 24.7727L22.3042 35.1488L27.726 31.5031L22.3977 17.2944C21.6499 15.4249 19.9673 14.1162 17.6303 13.9292L13.5173 13.5553L12.5825 13.4618H12.489C12.1151 13.4618 11.5542 13.7422 11.4607 14.1162V14.2096L11.1803 15.1444L9.9651 19.0705C9.31075 21.2205 9.77814 23.3705 11.2738 24.7727ZM10.526 12.4336C10.8064 12.2466 10.9934 12.0596 11.3673 11.8727L9.4977 3.92703C9.40423 4.11399 9.21726 4.30094 8.93683 4.4879C8.00204 5.04877 7.16074 4.86181 6.59988 4.67486C6.13248 4.4879 6.03901 4.4879 5.85205 4.58138C5.66509 4.67486 5.66509 4.76833 5.66509 5.23572C5.57161 5.79659 5.57162 6.73138 4.63683 7.29225C4.3564 7.4792 4.16945 7.57268 3.88901 7.57268L10.526 12.4336Z" fill="#6F5E6C"/>
</svg>
