<svg width="70" height="70" viewBox="0 0 70 70" fill="none" xmlns="http://www.w3.org/2000/svg">
<path d="M0.432129 56.0009C0.432129 56.5194 0.777808 56.8651 1.29633 56.8651H29.5556L27.1358 68.5318C27.0494 68.791 27.1358 69.0503 27.3087 69.2231C27.4815 69.396 27.7408 69.5688 28 69.5688H42C42.2593 69.5688 42.5186 69.4824 42.6914 69.2231C42.8642 69.0503 42.9506 68.791 42.8642 68.5318L40.4445 56.8651H68.7037C69.2223 56.8651 69.5679 56.5194 69.5679 56.0009V48.0503C69.5679 47.5317 69.2223 47.1861 68.7037 47.1861H66.6297V24.8898C66.6297 22.2972 64.4692 20.1367 61.8766 20.1367H58.3334V4.14903C58.3334 2.07496 56.6914 0.432983 54.6173 0.432983H15.4692C13.3951 0.432983 11.7531 2.07496 11.7531 4.14903V20.2231H8.12349C5.53089 20.2231 3.3704 22.3836 3.3704 24.9762V47.2725H1.29633C0.777808 47.2725 0.432129 47.6182 0.432129 48.1367V56.0009ZM40.963 67.8404H29.0371L31.284 56.8651H38.7161L40.963 67.8404ZM13.4815 4.14903C13.4815 3.02558 14.3457 2.16138 15.4692 2.16138H54.6173C55.7408 2.16138 56.605 3.02558 56.605 4.14903V8.3836C56.605 10.9762 54.4445 13.1367 51.8519 13.1367C49.2593 13.1367 47.0988 10.9762 47.0988 8.3836C47.0988 7.86508 46.7531 7.5194 46.2346 7.5194C45.7161 7.5194 45.3704 7.86508 45.3704 8.3836C45.3704 10.9762 43.2099 13.1367 40.6173 13.1367C38.0247 13.1367 35.8642 10.9762 35.8642 8.3836C35.8642 7.86508 35.5186 7.5194 35 7.5194C34.4815 7.5194 34.1358 7.86508 34.1358 8.3836C34.1358 10.9762 31.9753 13.1367 29.3827 13.1367C26.7902 13.1367 24.6297 10.9762 24.6297 8.3836C24.6297 7.86508 24.284 7.5194 23.7655 7.5194C23.2469 7.5194 22.9013 7.86508 22.9013 8.3836C22.9013 10.9762 20.7408 13.1367 18.1482 13.1367C15.5556 13.1367 13.3951 10.9762 13.3951 8.3836V4.14903H13.4815ZM13.4815 12.791C14.6914 14.0873 16.3334 14.8651 18.2346 14.8651C20.6544 14.8651 22.7284 13.5688 23.8519 11.5811C24.9753 13.4824 27.0494 14.8651 29.4692 14.8651C31.8889 14.8651 33.963 13.5688 35.0864 11.5811C36.2099 13.4824 38.284 14.8651 40.7037 14.8651C43.1235 14.8651 45.1976 13.5688 46.321 11.5811C47.4445 13.4824 49.5185 14.8651 51.9383 14.8651C53.8395 14.8651 55.4815 14.0873 56.6914 12.791V20.2231H13.4815V12.791ZM5.0988 24.8898C5.0988 23.2478 6.48151 21.8651 8.12349 21.8651H12.5309H57.2963H61.7037C63.3457 21.8651 64.7284 23.2478 64.7284 24.8898V30.3342C64.7284 33.2725 62.3951 35.6058 59.4568 35.6058C56.5186 35.6058 54.1852 33.2725 54.1852 30.3342C54.1852 29.8157 53.8395 29.47 53.321 29.47C52.8025 29.47 52.4568 29.8157 52.4568 30.3342C52.4568 33.2725 50.1235 35.6058 47.1852 35.6058C44.2469 35.6058 41.9136 33.2725 41.9136 30.3342C41.9136 29.8157 41.5679 29.47 41.0494 29.47C40.5309 29.47 40.1852 29.8157 40.1852 30.3342C40.1852 33.2725 37.8519 35.6058 34.9136 35.6058C31.9753 35.6058 29.642 33.2725 29.642 30.3342C29.642 29.8157 29.2963 29.47 28.7778 29.47C28.2593 29.47 27.9136 29.8157 27.9136 30.3342C27.9136 33.2725 25.5803 35.6058 22.642 35.6058C19.7037 35.6058 17.3704 33.2725 17.3704 30.3342C17.3704 29.8157 17.0247 29.47 16.5062 29.47C15.9877 29.47 15.642 29.8157 15.642 30.3342C15.642 33.2725 13.3087 35.6058 10.3704 35.6058C7.43213 35.6058 5.0988 33.2725 5.0988 30.3342V24.8898ZM5.0988 35.0009C6.39509 36.47 8.29633 37.4206 10.3704 37.4206C13.0494 37.4206 15.2963 35.9515 16.5062 33.791C17.7161 35.9515 20.0494 37.4206 22.642 37.4206C25.2346 37.4206 27.5679 35.9515 28.7778 33.791C29.9877 35.9515 32.321 37.4206 34.9136 37.4206C37.5062 37.4206 39.8395 35.9515 41.0494 33.791C42.2593 35.9515 44.5926 37.4206 47.1852 37.4206C49.7778 37.4206 52.1111 35.9515 53.321 33.791C54.5309 35.9515 56.8642 37.4206 59.4568 37.4206C61.5309 37.4206 63.4321 36.47 64.7284 35.0009V47.2725H5.0988V35.0009ZM2.16052 49.0009H4.2346H65.679H67.7531V55.2231H39.4074H30.5926H2.16052V49.0009Z" fill="#6F5E6C"/>
</svg>
