<svg width="70" height="70" viewBox="0 0 70 70" fill="none" xmlns="http://www.w3.org/2000/svg">
<path d="M1.29633 21.433H4.06176V68.7046C4.06176 69.2232 4.40744 69.5688 4.92596 69.5688H64.9877C65.5062 69.5688 65.8519 69.2232 65.8519 68.7046V21.433H68.6173C69.1358 21.433 69.4815 21.0874 69.4815 20.5688V11.1491C69.4815 10.6306 69.1358 10.2849 68.6173 10.2849H55.3087C56.6914 8.72934 57.642 6.56885 57.2099 4.66761C56.7778 2.76638 54.963 0.433044 48.8272 0.433044C43.8148 0.433044 39.1482 2.4207 36.5556 5.53181C36.1235 5.44539 35.6914 5.35897 35.2593 5.35897C34.7408 5.35897 34.1358 5.44539 33.6173 5.61823C31.0247 2.4207 26.3581 0.433044 21.2593 0.433044C15.1235 0.433044 13.3087 2.67996 12.8766 4.66761C12.4445 6.65527 13.3951 8.81576 14.7778 10.2849H1.29633C0.777808 10.2849 0.432129 10.6306 0.432129 11.1491V20.5688C0.432129 21.0009 0.864228 21.433 1.29633 21.433ZM64.1235 67.8404H5.87657V21.433H28.7778V40.0133C28.7778 40.359 28.9506 40.6182 29.2099 40.7911C29.2963 40.8775 29.4692 40.8775 29.642 40.8775C29.8148 40.8775 29.9877 40.7911 30.0741 40.7046L35 37.5071L39.8395 40.6182C40.0988 40.7911 40.4445 40.7911 40.7037 40.6182C40.963 40.4454 41.1358 40.1861 41.1358 39.8404V21.433H64.0371L64.1235 67.8404ZM39.4939 12.0133V38.3713L35.5185 35.7787C35.2593 35.6059 34.8272 35.6059 34.5679 35.7787L30.5062 38.3713V12.0133H39.4939ZM67.8395 19.7046H41.2223V12.0133H67.8395V19.7046ZM48.7408 2.16144C52.6297 2.16144 55.0494 3.19848 55.4815 5.01329C55.9136 6.91453 54.2716 9.4207 52.5432 10.2849H40.4445C40.2716 8.64292 39.4074 7.17378 38.1111 6.30959C40.4445 3.71699 44.4198 2.16144 48.7408 2.16144ZM38.7161 10.2849H31.7161C31.9753 8.47008 33.4445 7.08736 35.1729 7.08736C36.9877 7.08736 38.4568 8.47008 38.7161 10.2849ZM14.5185 5.01329C14.9506 3.19848 17.284 2.16144 21.2593 2.16144C25.7531 2.16144 29.8148 3.80341 32.0618 6.48243C30.9383 7.34662 30.1605 8.72934 29.9877 10.2849H17.5432C15.8148 9.4207 14.0864 6.91453 14.5185 5.01329ZM2.16052 12.0133H28.7778V19.7046H2.16052V12.0133Z" fill="#6F5E6C"/>
</svg>
