<svg width="82" height="86" fill="none" xmlns="http://www.w3.org/2000/svg"><path d="M13.5 22.6L1 5.1C.3 4.2.5 3 1.4 2.4L3.7.8c.9-.6 2.1-.4 2.8.5L19 18.7l-5.5 3.9zm67.6 20.3l-.3 10.8c-.5 16.4-13.2 30-29.4 31.6h-.3c-1 .1-2.1.2-3.1.3-.9.1-1.7.1-2.6.1-15 0-28.5-10.6-31.9-25.5l-2.4-10.5c-.5-1.1-.8-2.1-.9-3.3-.5-4.7 2.5-9.2 7.8-12.9-.3-2.8-.5-5.2-.5-6.8-.7 0-1.3-.2-1.7-.8l-1.7-2.3 5.5-3.9 1.7 2.3c.4.6.5 1.3.2 1.9 2 .8 5.3 2.1 8.7 3.9 4.2-1.3 8.9-2.3 13.9-2.8 3.5-.3 6.9-.4 10.1-.3 3.4-1.7 6.5-2.6 6.8-2.7.3-.1.6 0 .8.1.2.1.4.4.5.7.2.9.4 1.9.8 3 10.5 2.1 17.8 7.2 18.4 13.8 0 1-.1 2.1-.4 3.3zm-17.3-15c.7 1.5 1.6 2.7 2.6 3 2.8.9 3.6 2.7 3.7 4 4.4.7 7.2 5.1 8.7 8.6.1-.3.2-.7.3-1 .3-1 .4-2 .3-3 0-.1 0-.3-.1-.4-.7-5.1-6.8-9.2-15.5-11.2zm-40.4 4.6c1.1 2.3 2.4 4.8 3.8 7.2.3-.2.6-.4 1-.6l-4.8-6.6zm6.5 5.6c.4-.2.7-.3 1.1-.5-1.8-2.1-3.8-4.2-5.7-6 0 0-.1 0-.1.1l4.7 6.4zm3.1-1.3c.5-.1.9-.3 1.4-.4-2.1-2.1-4.6-4.1-6.9-5.8 0 0-.1 0-.1.1 1.8 1.9 3.8 4 5.6 6.1zm-11.2-3.1c.8 2.6 1.7 5.4 2.9 8 .3-.3.6-.6.9-.8-1.4-2.4-2.7-4.9-3.8-7.2zm16.7 2.1c-2.4-2.3-5.5-4.4-8.5-6-.1 0-.1 0-.2.1 2.4 1.8 4.9 3.9 7 6.2.5-.2 1.1-.2 1.7-.3zm-18.2-.3c.5 3 1.2 6.2 2.3 9 .2-.4.5-.8.8-1.2-1.3-2.5-2.3-5.2-3.1-7.8zm3.1 21c6.6 2.4 15.1 3.2 24 2.4 14.1-1.4 25.8-6.7 30.2-13.1-1.1-3.2-3.8-8.4-8.1-8.9-4.1 2.8-8.3 3.5-11.3 3.5-2.4 0-4-.4-4.2-.5-.5-.1-.8-.7-.7-1.2.1-.5.7-.8 1.2-.7.1 0 7 1.8 13.6-2.6.1-.9-.2-1.9-2.3-2.6-2.1-.7-3.4-3.1-4.3-5.4-.3-.8-.5-1.5-.7-2.1-.1-.4-.2-.8-.3-1.1-.5.2-1.3.5-2.1.8-1.1.4-2.4 1-3.8 1.7-3.4 1.7-6.8 4.1-7.7 7-.4 1.4-.5 2.5-.3 3.4.1.3 0 .7-.3.9-.2.2-.6.3-.9.3-.9-.2-1.8-.3-2.8-.4-.7-.1-1.4-.1-2.2-.1h-.3c-.6 0-1.3 0-1.9.1-.8.1-1.6.2-2.3.3-.5.1-1.1.2-1.6.4-.7.2-1.4.4-2 .6-.5.2-.9.4-1.3.5l-1.8.9c-.4.2-.8.5-1.1.7-.6.4-1.1.8-1.5 1.3l-1 1c-.5.6-.9 1.2-1.3 1.8-.3.5-.5 1.1-.7 1.6-.3 1-.5 1.9-.6 3v.1c0 1.6.4 3.1 1.3 4.6.2.4.1 1-.2 1.3-.3.1-.5.3-.7.5zM32.6 29c3.2 1.9 6.3 4.2 8.6 6.8 1.1 0 2.3.1 3.4.3 0-.9.2-1.9.5-3 .8-2.6 3.1-4.8 5.8-6.6-2.1 0-4.3.1-6.5.3-4.3.4-8.2 1.2-11.8 2.2zM12.1 45.7v.4c.1 1 .4 1.9.8 2.8 1.3 2.7 4.2 5 8.3 6.8.3-.3.6-.5.9-.8-.8-1.6-1.1-3.2-1.1-4.8 0-1 .1-2 .4-2.9-1.6-3.5-2.6-7.7-3.2-11.5-3.9 2.9-6.2 6.5-6.1 10zm66.8 4.2l.1-2.7c-.6.9-1.4 1.7-2.2 2.5-5.8 5.6-16.5 9.9-29.2 11.1-2.3.2-4.6.3-6.9.3-6.9 0-13.3-1-18.5-3-.1 0-.2-.1-.2-.1-.3-.1-.6-.2-.9-.4-.3-.1-.6-.3-.9-.4-2.4-1.1-4.4-2.4-6-3.9l1.4 6.2C19 74.3 32.9 84.6 48 83.4l3-.3h.3c15.1-1.3 27-14.1 27.5-29.5l.1-3.7z" fill="#6F5E6C"/></svg>