<svg width="82" height="86" fill="none" xmlns="http://www.w3.org/2000/svg"><path d="M.524 5.89c.748-.467 1.495-.374 2.056-.28.094 0 .187.093.28.093.468.187.562.187.655.094.094-.094.187-.187.187-.655v-.28c.094-.561.28-1.309 1.028-1.776.748-.468 1.496-.374 2.057-.28.093 0 .187.093.28.093.468.187.561.187.655.093.28-.187.28-.187.374-.748v-.28c.093-.56.28-1.309 1.028-1.776.467-.28 1.028-.187 1.308.187v.093c.094.094.187.28.187.374l2.524 10.75 4.674.468c2.992.28 5.328 1.963 6.263 4.58l5.422 14.209h.094c.28.093.467.374.56.654l1.963 6.637c3.74-1.028 8.04-1.776 12.714-2.15 1.589-2.243 4.393-4.58 5.047-5.235a.983.983 0 011.215 0c.748.561 3.46 2.898 5.048 5.235 3.646.28 7.105.748 10.19 1.496 1.028-.935 1.87-1.683 2.243-2.057a.983.983 0 011.215 0c.654.561 3.085 2.618 4.768 4.768 4.674 2.15 7.384 5.047 7.384 8.132 0 .28 0 .561-.093.841v24.398c-.094 6.918-13.835 12.433-31.409 12.433-17.574 0-31.315-5.515-31.315-12.526V49.17c0-.28-.094-.561-.094-.842 0-2.898 2.337-5.515 6.357-7.665l-4.113-3.272c-.187-.187-.374-.467-.374-.748v-.093L9.872 26.175c-1.963-1.87-2.618-4.674-1.776-7.572l1.402-4.487-8.974-6.45a1.29 1.29 0 01-.28-.374S.15 7.292.15 7.2c-.187-.47 0-1.03.374-1.31zm31.689 36.176l-1.963 1.309c-.28.187-.468.28-.748.28-.28 0-.654-.093-.841-.28l-.094-.094c-1.028.748-1.682 1.403-1.776 1.776 0 .842 1.963 1.963 5.048 1.963s5.048-1.215 5.048-1.963c-.094-.56-1.963-2.056-4.207-3.458l-.467.467zm22.902-4.3c-.187-.28-.374-.654-.654-.935-.28-.28-.468-.654-.842-.934-.934-1.029-2.056-2.15-3.178-3.085-1.122 1.028-2.243 2.056-3.178 3.085a8.36 8.36 0 01-.841.934 18.7 18.7 0 00-.655.935c-.28.468-.467.842-.467 1.122 0 1.87 2.337 3.365 5.048 3.365 2.71 0 5.047-1.589 5.047-3.365.188-.28 0-.654-.28-1.122zM73.25 41.6c-.374-.468-.841-1.028-1.309-1.59-.467-.467-.935-1.028-1.496-1.495-.467-.467-.934-.841-1.308-1.215-.187.187-.468.374-.654.654-.28.28-.561.467-.842.748l-.748.748c-1.589 1.682-2.804 3.272-2.804 4.02 0 1.869 2.337 3.364 5.048 3.364 2.71 0 5.048-1.589 5.048-3.365 0-.374-.374-1.028-.935-1.87zM20.995 73.475c0 5.141 11.872 10.656 29.446 10.656 17.668 0 29.446-5.515 29.446-10.656V52.723c-4.394 4.767-15.798 8.132-29.446 8.132-13.648 0-25.052-3.365-29.446-8.132v20.752zm0-25.426c0 .093.094.187.094.28v.655c.935 4.954 12.526 10.002 29.446 10.002s28.417-5.048 29.352-10.002v-.655c0-.093 0-.187.093-.28-.093-1.683-1.495-3.365-3.926-4.955v.374c0 2.898-3.085 5.235-6.917 5.235-3.833 0-6.918-2.337-6.918-5.235 0-1.308 1.216-2.991 2.618-4.487a81.43 81.43 0 00-7.572-1.121c.094.374.187.654.187.934 0 2.898-3.085 5.235-6.917 5.235-3.833 0-6.918-2.337-6.918-5.235 0-.28.094-.654.187-.934-3.926.374-7.385.934-10.47 1.776 2.431 1.402 5.422 3.552 5.422 5.234 0 2.244-2.99 3.833-6.917 3.833-3.926 0-6.917-1.683-6.917-3.833 0-.934.934-1.962 2.15-2.99-3.833 1.869-5.983 4.019-6.076 6.169zm8.32-6.637l.187.187 1.402-.935-.093-.187v-.093l-2.057-7.198-.28.187-4.674 3.085-.28.186 5.795 4.768zm-18.041-16.64l11.03 10.377 5.422-3.646-5.328-14.209c-.748-1.87-2.43-3.178-4.768-3.365l-4.113-.374-.934-.093h-.094c-.374 0-.935.28-1.028.654v.094l-.28.934-1.216 3.926c-.654 2.15-.187 4.3 1.309 5.703zm-.748-12.338c.28-.187.467-.374.841-.561l-1.87-7.946c-.093.187-.28.374-.56.56-.935.562-1.776.375-2.337.188-.468-.187-.561-.187-.748-.094-.187.094-.187.187-.187.655-.093.56-.093 1.495-1.028 2.056-.28.187-.468.28-.748.28l6.637 4.862z" fill="#6F5E6C"/></svg>