<svg width="70" height="70" fill="none" xmlns="http://www.w3.org/2000/svg"><path d="M.432 56c0 .52.346.865.864.865h28.26l-2.42 11.667a.67.67 0 00.173.691c.172.173.432.346.691.346h14c.26 0 .519-.087.691-.346a.672.672 0 00.173-.691l-2.42-11.667h28.26c.518 0 .864-.346.864-.864v-7.95c0-.52-.346-.865-.864-.865H66.63V24.89c0-2.593-2.16-4.753-4.753-4.753h-3.544V4.149A3.689 3.689 0 0054.617.433H15.47a3.689 3.689 0 00-3.716 3.716v16.074h-3.63c-2.592 0-4.753 2.16-4.753 4.753v22.297H1.296c-.518 0-.864.345-.864.864V56zm40.531 11.84H29.037l2.247-10.975h7.432l2.247 10.975zM13.481 4.15c0-1.123.865-1.988 1.988-1.988h39.148c1.124 0 1.988.865 1.988 1.988v4.235c0 2.592-2.16 4.753-4.753 4.753s-4.753-2.16-4.753-4.753c0-.519-.346-.865-.864-.865-.519 0-.865.346-.865.865 0 2.592-2.16 4.753-4.753 4.753-2.592 0-4.753-2.16-4.753-4.753 0-.519-.345-.865-.864-.865s-.864.346-.864.865c0 2.592-2.16 4.753-4.753 4.753s-4.753-2.16-4.753-4.753c0-.519-.346-.865-.864-.865-.52 0-.865.346-.865.865 0 2.592-2.16 4.753-4.753 4.753-2.592 0-4.753-2.16-4.753-4.753V4.149h.087zm0 8.642c1.21 1.296 2.852 2.074 4.754 2.074 2.42 0 4.493-1.296 5.617-3.284 1.123 1.901 3.197 3.284 5.617 3.284s4.494-1.296 5.617-3.284c1.124 1.901 3.198 3.284 5.618 3.284 2.42 0 4.494-1.296 5.617-3.284 1.123 1.901 3.198 3.284 5.617 3.284 1.901 0 3.543-.778 4.753-2.074v7.432h-43.21v-7.432zM5.1 24.89c0-1.642 1.383-3.025 3.024-3.025h53.581c1.642 0 3.024 1.383 3.024 3.025v5.444a5.238 5.238 0 01-5.271 5.272 5.238 5.238 0 01-5.272-5.272c0-.518-.346-.864-.864-.864s-.864.346-.864.864a5.238 5.238 0 01-5.272 5.272 5.238 5.238 0 01-5.271-5.272c0-.518-.346-.864-.865-.864-.518 0-.864.346-.864.864a5.238 5.238 0 01-5.271 5.272 5.238 5.238 0 01-5.272-5.272c0-.518-.346-.864-.864-.864-.519 0-.864.346-.864.864a5.238 5.238 0 01-5.272 5.272 5.238 5.238 0 01-5.272-5.272c0-.518-.345-.864-.864-.864-.518 0-.864.346-.864.864a5.238 5.238 0 01-5.272 5.272A5.238 5.238 0 015.1 30.334V24.89zM5.1 35c1.296 1.47 3.197 2.42 5.271 2.42 2.68 0 4.926-1.468 6.136-3.629 1.21 2.16 3.543 3.63 6.136 3.63s4.926-1.47 6.136-3.63c1.21 2.16 3.543 3.63 6.136 3.63 2.592 0 4.925-1.47 6.135-3.63 1.21 2.16 3.544 3.63 6.136 3.63 2.593 0 4.926-1.47 6.136-3.63 1.21 2.16 3.543 3.63 6.136 3.63 2.074 0 3.975-.951 5.271-2.42v12.272H5.098V35zM2.16 49h65.592v6.223H2.161v-6.222z" fill="#6F5E6C"/></svg>