<svg width="70" height="70" fill="none" xmlns="http://www.w3.org/2000/svg"><path d="M1.296 21.433h2.766v47.272c0 .518.345.864.864.864h60.062c.518 0 .864-.346.864-.864V21.433h2.765c.519 0 .864-.346.864-.864v-9.42c0-.518-.345-.864-.864-.864H55.31c1.382-1.556 2.333-3.716 1.9-5.617-.431-1.902-2.246-4.235-8.382-4.235-5.012 0-9.679 1.988-12.271 5.099-.432-.087-.865-.173-1.297-.173-.518 0-1.123.086-1.642.26C31.025 2.42 26.358.432 21.26.432c-6.136 0-7.95 2.247-8.382 4.235-.433 1.987.518 4.148 1.9 5.617H1.298c-.52 0-.865.346-.865.864v9.42c0 .432.432.864.864.864zM64.124 67.84H5.877V21.433h22.9v18.58c0 .346.174.605.433.778.086.087.26.087.432.087a.66.66 0 00.432-.173L35 37.507l4.84 3.111a.784.784 0 00.864 0c.259-.173.432-.432.432-.778V21.433h22.901l.087 46.407zm-24.63-55.827v26.358l-3.975-2.592c-.26-.173-.692-.173-.951 0l-4.062 2.592V12.013h8.988zm28.346 7.692H41.222v-7.692H67.84v7.692zM48.74 2.16c3.89 0 6.31 1.037 6.741 2.852.433 1.902-1.21 4.408-2.938 5.272H40.444c-.172-1.642-1.037-3.111-2.333-3.975 2.334-2.593 6.309-4.149 10.63-4.149zm-10.024 8.124h-7c.26-1.815 1.728-3.198 3.457-3.198 1.815 0 3.284 1.383 3.543 3.198zM14.518 5.013c.433-1.815 2.766-2.852 6.741-2.852 4.494 0 8.556 1.642 10.803 4.321-1.124.865-1.901 2.247-2.074 3.803H17.543c-1.728-.864-3.457-3.37-3.024-5.272zm-12.357 7h26.617v7.692H2.16v-7.692z" fill="#6F5E6C"/></svg>