<svg width="22" height="22" viewBox="0 0 22 22" fill="none" xmlns="http://www.w3.org/2000/svg">
<g clip-path="url(#clip0)">
<path d="M10.6054 0.825C6.31512 0.825 2.825 4.31511 2.825 8.60537C2.825 9.94131 3.26083 11.4204 3.90793 12.8838C4.55599 14.3493 5.42157 15.8115 6.29376 17.117C8.03814 19.7279 9.81831 21.7256 9.96567 21.8898C10.3075 22.2704 10.904 22.2697 11.2452 21.8897C11.3925 21.7256 13.1727 19.7279 14.9171 17.117C15.7893 15.8115 16.6548 14.3493 17.3029 12.8838C17.95 11.4204 18.3858 9.94131 18.3858 8.60537C18.3857 4.31512 14.8957 0.825 10.6054 0.825ZM14.4323 14.6649C13.215 16.701 11.7328 18.6415 10.6054 19.9937C9.47833 18.6419 7.99613 16.7014 6.77873 14.6651C5.5077 12.5392 4.5446 10.34 4.5446 8.60545C4.5446 5.2636 7.2636 2.5446 10.6054 2.5446C13.9472 2.5446 16.6662 5.2636 16.6662 8.60541C16.6662 10.34 15.7032 12.5391 14.4323 14.6649Z" fill="#B29BC7" stroke="#B29BC7" stroke-width="0.35"/>
<path d="M10.6052 4.60381C8.39866 4.60381 6.60381 6.39871 6.60381 8.60528C6.60381 10.8119 8.3987 12.6068 10.6052 12.6068C12.8118 12.6068 14.6066 10.8119 14.6066 8.60528C14.6066 6.39871 12.8118 4.60381 10.6052 4.60381ZM10.6052 10.8872C9.34715 10.8872 8.3234 9.86339 8.3234 8.60528C8.3234 7.34718 9.34719 6.3234 10.6052 6.3234C11.8633 6.3234 12.8871 7.34718 12.8871 8.60528C12.8871 9.86338 11.8633 10.8872 10.6052 10.8872Z" fill="#B29BC7" stroke="#B29BC7" stroke-width="0.35"/>
</g>
<defs>
<clipPath id="clip0">
<rect width="22" height="22" fill="white"/>
</clipPath>
</defs>
</svg>
