<svg width="22" height="22" viewBox="0 0 22 22" fill="none" xmlns="http://www.w3.org/2000/svg">
<path fill-rule="evenodd" clip-rule="evenodd" d="M18.2954 2.99732C16.3659 1.06549 13.7997 0.00113296 11.0659 0C5.43249 0 0.847759 4.58461 0.845493 10.2195C0.844738 12.0208 1.3153 13.7791 2.20971 15.329L0.759766 20.625L6.17773 19.2038C7.6706 20.0181 9.3513 20.4472 11.0617 20.4478H11.066C16.6987 20.4478 21.2839 15.8628 21.2861 10.2277C21.2872 7.4967 20.2251 4.92903 18.2954 2.99732ZM11.0659 18.7217H11.0623C9.53811 18.7211 8.04322 18.3115 6.7388 17.5377L6.42875 17.3535L3.21364 18.1969L4.0718 15.0623L3.86976 14.7409C3.0194 13.3884 2.57037 11.8251 2.57113 10.2201C2.57289 5.53655 6.38368 1.72613 11.0692 1.72613C13.3382 1.72689 15.4711 2.61161 17.0748 4.21727C18.6786 5.82294 19.5613 7.95719 19.5606 10.227C19.5586 14.9109 15.748 18.7217 11.0659 18.7217ZM15.7254 12.3596C15.4701 12.2317 14.2145 11.6141 13.9803 11.5288C13.7464 11.4436 13.576 11.4012 13.4059 11.6567C13.2356 11.9122 12.7463 12.4875 12.5972 12.6579C12.4482 12.8283 12.2994 12.8497 12.044 12.7218C11.7886 12.594 10.9658 12.3243 9.99029 11.4543C9.2312 10.7771 8.71872 9.94089 8.56968 9.68534C8.42088 9.42954 8.56842 9.30466 8.68171 9.16418C8.95816 8.82089 9.23498 8.46098 9.32008 8.29066C9.4053 8.12021 9.36263 7.97104 9.29868 7.84326C9.23498 7.71549 8.72426 6.45853 8.51152 5.94706C8.30406 5.44931 8.0937 5.51653 7.93685 5.50873C7.78805 5.5013 7.61773 5.49979 7.44741 5.49979C7.27721 5.49979 7.00052 5.56361 6.76637 5.81941C6.53235 6.07508 5.87271 6.6928 5.87271 7.94976C5.87271 9.20672 6.78777 10.421 6.91542 10.5915C7.04307 10.7619 8.71621 13.3413 11.2778 14.4473C11.8871 14.7107 12.3627 14.8676 12.7337 14.9853C13.3455 15.1797 13.902 15.1523 14.3421 15.0866C14.8328 15.0132 15.8529 14.4687 16.0659 13.8723C16.2786 13.2757 16.2786 12.7645 16.2147 12.6579C16.151 12.5514 15.9807 12.4875 15.7254 12.3596Z" fill="#B29BC7"/>
</svg>
