<svg width="22" height="22" fill="none" xmlns="http://www.w3.org/2000/svg"><path fill-rule="evenodd" clip-rule="evenodd" d="M18.295 2.997A10.154 10.154 0 0011.065 0C5.433 0 .849 4.585.846 10.22c0 1.8.47 3.56 1.365 5.109L.76 20.625l5.418-1.421a10.211 10.211 0 004.884 1.244h.004c5.633 0 10.218-4.585 10.22-10.22a10.158 10.158 0 00-2.99-7.23zm-7.23 15.725h-.003a8.474 8.474 0 01-4.323-1.184l-.31-.184-3.215.843.858-3.135-.202-.321a8.474 8.474 0 01-1.299-4.52c.002-4.684 3.813-8.495 8.498-8.495 2.27 0 4.402.886 6.006 2.491a8.445 8.445 0 012.486 6.01c-.002 4.684-3.813 8.495-8.495 8.495zm4.66-6.362c-.255-.128-1.51-.746-1.745-.831-.234-.085-.404-.128-.574.128-.17.255-.66.83-.809 1-.149.171-.298.193-.553.065-.255-.128-1.078-.398-2.054-1.268-.759-.677-1.271-1.513-1.42-1.769-.15-.255-.002-.38.112-.52.276-.344.553-.704.638-.874.085-.17.043-.32-.021-.448s-.575-1.384-.787-1.896c-.208-.498-.418-.43-.575-.438a9.493 9.493 0 00-.49-.01.938.938 0 00-.68.32c-.235.256-.894.874-.894 2.13 0 1.258.915 2.472 1.042 2.643.128.17 1.801 2.75 4.363 3.855.61.264 1.085.42 1.456.538.611.195 1.168.167 1.608.102.49-.074 1.51-.618 1.724-1.215.213-.596.213-1.107.149-1.214-.064-.107-.234-.17-.49-.298z" fill="#B29BC7"/></svg>